<svg viewBox="0 0 24 24" xmlns="http://www.w3.org/2000/svg"><path d="m0 8h8v-8h-8zm1.334-6.667h5.332v5.333h-5.332zm1.332 1.334h2.668v2.667h-2.668zm13.334 5.333h8v-8h-8zm1.332-6.667h5.334v5.333h-5.334zm1.334 1.334h2.666v2.667h-2.666zm-18.666 21.333h8v-8h-8zm1.334-6.667h5.332v5.334h-5.332zm1.332 1.334h2.668v2.666h-2.668zm20 2.666h1.334v2.667h-2.668v-4h1.334zm0-4h1.334v1.334h-1.334zm0-1.333v1.333h-1.334v-1.333zm-13.332 2.667h1.332v5.333h-1.332zm-5.334-9.334v2.667h-2.668v-1.333h-1.332v-1.333zm5.334-4h1.332v1.333h-1.332zm3.998-4v2.667h-1.332v-4h2.666v1.333zm-3.998 0h1.332v1.333h-1.332zm13.332 10.667h1.334v2.667h-2.668v-1.334h1.334zm-1.334-2.667v1.333h-2.666v2.667h-2.666v-1.333h1.332v-2.667zm-9.332 5.334h-1.334v-1.334h-1.332v-1.333h2.666zm8 2.666h1.332v1.334h-1.332zm2.666-6.666v1.333h-1.334v-1.333zm-12 4v1.333h-1.332v-1.333zm8 6.666h1.334v2.667h-2.668v-2.667zm-4 0h1.334v1.334h-1.334v1.333h-2.666v-1.333h1.332v-1.334zm0-1.333v-1.333h2.666v1.333zm0-6.667h1.334v4h-1.334v1.334h-1.334v1.333h-1.332v-2.667h-1.334v-1.333h4v-1.333h-1.334v-1.334zm-12 0v1.334h-1.332v-1.334zm16 5.334h-1.334v-1.334h1.334zm1.334-2.667h-2.668v-1.333h2.668zm-13.334-6.667h1.334v1.333h-1.334v1.334h1.334v2.667h-1.334v-1.334h-1.332v1.334h-1.334v-2.667h1.332v-2.667zm4 0v-2.667h4v4h-2.666v-1.333h1.332v-1.333h-1.332v1.333zm0-5.333h1.334v1.333h-1.334zm-1.332 5.333h1.332v1.333h-1.332zm3.998-4v-1.333h1.334v1.333z"/></svg>