<svg enable-background="new 27.5 0 95 53" height="53" viewBox="27.5 0 95 53" width="95" xmlns="http://www.w3.org/2000/svg"><path d="m63.016 33.148c6.087-.539 12.179-1.053 18.271-1.545 7.426-.6 14.969-.334 22.293-1.893 5.291-1.12 13.016-5.592 6.816-11.236-1.477-1.347-3.412-2.089-5.359-2.55-7.248-1.707-15.229-.221-22.533.607-6.945.786-13.874 1.73-20.802 2.654-10.709 1.429-22.351 4.066-33.202 3.133" style="fill:none;stroke:#324a55;stroke-width:.8;stroke-linecap:round;stroke-linejoin:round;stroke-miterlimit:10"/><path d="m85.518 29.643c5.598-4.479 10.898-9.917 14.822-15.938 1.465-2.238 3.047-4.453 4.039-6.954.346-.88.982-2.55.707-3.487-.678-2.269-6.051 6.602-6.525 7.565-3.414 6.942-6.879 13.971-8.785 21.509-.953 3.788-1.506 7.691-1.367 11.604.074 2.146.203 7.763 3.242 8.053.457.044.904-.126 1.305-.355 2.742-1.603 4.018-5.65 5.205-8.388 2.646-6.094 4.682-12.465 6.607-18.815 1.41-4.651 2.738-9.334 3.951-14.042" style="fill:none;stroke:#324a55;stroke-width:.8;stroke-linecap:round;stroke-linejoin:round;stroke-miterlimit:10"/><text fill="#324a55" font-family="'Autography'" font-size="21" transform="matrix(.9955 -.0949 .0949 .9955 39.0249 35.417)">Kraus</text></svg>