<svg enable-background="new 27.5 0 95 53" height="53" viewBox="27.5 0 95 53" width="95" xmlns="http://www.w3.org/2000/svg"><path d="m63.013 33.146c6.087-.539 12.18-1.053 18.272-1.545 7.426-.598 14.971-.332 22.293-1.891 5.291-1.121 13.016-5.594 6.814-11.237-1.477-1.347-3.41-2.089-5.357-2.55-7.244-1.706-15.229-.22-22.533.607-6.945.786-13.874 1.729-20.801 2.654-10.709 1.432-22.351 4.069-33.201 3.136" style="fill:none;stroke:#324a55;stroke-width:.5;stroke-linecap:round;stroke-linejoin:round;stroke-miterlimit:10"/><path d="m85.518 29.643c5.602-4.479 10.896-9.917 14.82-15.936 1.465-2.239 3.049-4.453 4.043-6.955.346-.879.979-2.55.703-3.486-.68-2.27-6.049 6.601-6.525 7.564-3.416 6.942-6.877 13.97-8.785 21.507-.955 3.789-1.506 7.692-1.367 11.604.078 2.146.203 7.762 3.242 8.053.455.043.904-.127 1.301-.357 2.742-1.6 4.018-5.647 5.205-8.387 2.646-6.094 4.684-12.465 6.607-18.814 1.412-4.653 2.74-9.334 3.955-14.042" style="fill:none;stroke:#324a55;stroke-width:.5;stroke-linecap:round;stroke-linejoin:round;stroke-miterlimit:10"/><text fill="#324a55" font-family="'AllisonScript-Regular'" font-size="23" transform="matrix(.9955 -.0949 .0949 .9955 33.3521 33.0469)">Kraus</text></svg>