<svg enable-background="new 27.5 0 95 53" height="53" viewBox="27.5 0 95 53" width="95" xmlns="http://www.w3.org/2000/svg"><path d="m63.092 33.15c6.086-.541 12.179-1.055 18.271-1.547 7.427-.599 14.972-.332 22.293-1.891 5.289-1.121 13.017-5.593 6.813-11.237-1.477-1.347-3.41-2.089-5.356-2.55-7.247-1.707-15.229-.22-22.532.607-6.947.786-13.875 1.73-20.803 2.654-10.709 1.429-22.351 4.066-33.202 3.133" style="fill:none;stroke:#324a55;stroke-width:.5;stroke-linecap:round;stroke-linejoin:round;stroke-miterlimit:10"/><path d="m85.593 29.643c5.603-4.479 10.897-9.916 14.822-15.937 1.465-2.238 3.047-4.453 4.039-6.955.348-.879.983-2.549.706-3.486-.68-2.269-6.051 6.602-6.528 7.564-3.41 6.943-6.875 13.972-8.783 21.509-.951 3.789-1.504 7.693-1.367 11.604.077 2.147.205 7.764 3.244 8.053.456.045.902-.126 1.303-.354 2.742-1.604 4.02-5.652 5.205-8.389 2.648-6.094 4.684-12.465 6.607-18.815 1.412-4.652 2.74-9.334 3.953-14.042" style="fill:none;stroke:#324a55;stroke-width:.5;stroke-linecap:round;stroke-linejoin:round;stroke-miterlimit:10"/><text fill="#324a55" font-family="'Aerotis'" font-size="20.2363" transform="matrix(.9955 -.0949 .0949 .9955 28.5 36.8945)">Kraus</text></svg>