<svg enable-background="new 27.5 0 95 53" height="53" viewBox="27.5 0 95 53" width="95" xmlns="http://www.w3.org/2000/svg"><path d="m63.406 33.146c6.087-.539 12.179-1.053 18.271-1.545 7.426-.598 14.971-.332 22.293-1.891 5.291-1.123 13.016-5.594 6.815-11.239-1.478-1.347-3.411-2.089-5.356-2.55-7.246-1.706-15.229-.22-22.535.607-6.945.786-13.874 1.73-20.802 2.654-10.708 1.429-22.35 4.066-33.201 3.133" style="fill:none;stroke:#324a55;stroke-width:1.2;stroke-linecap:round;stroke-linejoin:round;stroke-miterlimit:10"/><path d="m85.909 29.643c5.603-4.479 10.897-9.917 14.821-15.936 1.465-2.239 3.049-4.453 4.043-6.955.346-.879.979-2.549.703-3.486-.681-2.27-6.05 6.601-6.526 7.564-3.416 6.942-6.876 13.97-8.784 21.507-.956 3.789-1.507 7.692-1.367 11.604.077 2.146.203 7.762 3.241 8.053.455.043.905-.127 1.302-.357 2.741-1.6 4.018-5.647 5.205-8.387 2.646-6.094 4.684-12.465 6.607-18.814 1.412-4.653 2.74-9.334 3.955-14.042" style="fill:none;stroke:#324a55;stroke-width:1.2;stroke-linecap:round;stroke-linejoin:round;stroke-miterlimit:10"/><text fill="#324a55" font-family="'Creata'" font-size="20.2363" transform="matrix(.9955 -.0949 .0949 .9955 39.6836 33.9639)">Kraus</text></svg>