<svg enable-background="new 27.5 0 95 53" height="53" viewBox="27.5 0 95 53" width="95" xmlns="http://www.w3.org/2000/svg"><path d="m63.404 33.148c6.087-.539 12.18-1.053 18.274-1.545 7.426-.599 14.971-.332 22.293-1.892 5.291-1.122 13.016-5.592 6.816-11.237-1.477-1.347-3.413-2.089-5.359-2.55-7.246-1.707-15.229-.22-22.533.607-6.946.786-13.873 1.73-20.802 2.654-10.709 1.428-22.351 4.065-33.202 3.132" style="fill:none;stroke:#324a55;stroke-width:.7;stroke-linecap:round;stroke-linejoin:round;stroke-miterlimit:10"/><path d="m85.908 29.643c5.6-4.479 10.896-9.916 14.822-15.937 1.463-2.238 3.047-4.453 4.039-6.954.348-.88.982-2.55.707-3.487-.681-2.269-6.052 6.602-6.528 7.564-3.415 6.943-6.878 13.972-8.784 21.509-.955 3.788-1.505 7.693-1.367 11.604.075 2.146.203 7.763 3.241 8.053.456.045.903-.126 1.304-.355 2.741-1.603 4.016-5.65 5.205-8.387 2.646-6.095 4.682-12.465 6.605-18.816 1.412-4.651 2.742-9.333 3.955-14.041" style="fill:none;stroke:#324a55;stroke-width:.7;stroke-linecap:round;stroke-linejoin:round;stroke-miterlimit:10"/><text fill="#324a55" font-family="'Tomatoes'" font-size="17" transform="matrix(.9955 -.0949 .0949 .9955 32.875 35.0508)">Kraus</text></svg>