<svg enable-background="new 0 0 16 16" height="16" viewBox="0 0 16 16" width="16" xmlns="http://www.w3.org/2000/svg"><path d="m2.954 1.737.998-.997c.07-.071.07-.186 0-.257-.03-.028-.067-.047-.107-.051l-3.642-.431c-.115-.013-.216.085-.202.203l.43 3.641c.018.149.203.213.311.106l.992-.993 3.039 3.035c.07.07.187.07.257 0l.964-.961c.07-.07.07-.187 0-.256zm8.017 4.257c.071.07.188.07.257 0l3.04-3.035.992.993c.072.071.187.07.258-.001.028-.028.046-.066.052-.105l.43-3.639c.014-.116-.084-.216-.202-.202l-3.642.429c-.15.018-.214.202-.106.309l.998.998-3.04 3.034c-.07.071-.07.185 0 .257zm4.598 6.162c-.019-.148-.202-.213-.31-.105l-.992.992-3.04-3.035c-.07-.07-.185-.07-.257 0l-.964.961c-.07.07-.07.186 0 .256l3.04 3.039-.998.996c-.071.072-.071.188 0 .258.029.029.066.047.106.053l3.642.428c.116.014.216-.082.202-.201zm-10.54-2.148c-.07-.07-.187-.07-.257 0l-3.039 3.035-.992-.992c-.072-.072-.188-.072-.259 0-.028.029-.047.064-.052.105l-.43 3.639c-.014.117.084.215.202.201l3.642-.428c.15-.018.214-.203.107-.309l-.998-.996 3.039-3.037c.07-.07.07-.186 0-.256z"/></svg>