<svg enable-background="new 0 0 595.279 595.281" height="595.281" viewBox="0 0 595.279 595.281" width="595.279" xmlns="http://www.w3.org/2000/svg"><path d="m27.734 48.625h539.812c7.652 0 14.581 3.101 19.618 8.139 5.038 5.038 8.14 11.966 8.14 19.62v345.262c0 7.654-3.102 14.58-8.14 19.619-5.037 5.039-11.966 8.139-19.618 8.139h-11.53l-24.271-46.799c1.356-4.117 2.277-8.188 2.907-12.207l.387-2.568c2.714-3.051 5.378-6.588 7.896-10.705.437-.727.872-1.453 1.309-2.229 4.264-7.654 7.072-15.695 8.43-24.318.097-.533.146-1.113.241-1.646l12.209-12.209v-175.466l-82.5-82.452h-370.016l-82.45 82.452v175.465l82.45 82.451h180.454l-14.921 28.824c-.242.436-.483.92-.727 1.355h-249.68c-7.652 0-14.581-3.1-19.618-8.139-5.038-4.99-8.14-11.916-8.14-19.57v-345.26c0-7.654 3.102-14.582 8.14-19.62 5.037-5.038 11.964-8.138 19.618-8.138zm122.515 247.839c-1.938 0-3.683-1.211-4.941-3.102-1.26-1.938-2.083-4.602-2.083-7.557s.774-5.619 2.083-7.559c1.26-1.938 3.052-3.1 4.941-3.1h82.839c1.938 0 3.682 1.211 4.94 3.1 1.261 1.939 2.035 4.604 2.035 7.559s-.774 5.668-2.035 7.557c-1.26 1.939-3.052 3.102-4.94 3.102zm-5.232 66.272c20.443-26.838 37.933-14.629 62.348 2.422 1.212.873 2.472 1.695 3.683 2.568 3.488 2.422 7.17 1.986 10.852.193 3.974-1.986 7.993-5.521 11.967-9.061l.097-.047c3.585-3.15 7.073-6.25 10.852-8.623.63-.389 1.502-.195 1.891.436l5.569 8.77c.389.629.194 1.502-.436 1.889-2.906 1.842-6.056 4.65-9.253 7.461l-.098.049c-5.57 4.941-11.287 9.932-17.585 12.547-6.491 2.664-13.517 2.664-21.314-2.762l-3.73-2.615c-9.397-6.59-17.438-12.16-24.706-13.951-6.928-1.648-13.273.338-19.669 8.719-.483.631-1.355.727-1.938.242l-8.235-6.248c-.634-.487-.78-1.358-.295-1.989zm5.232-203.514c-1.938 0-3.73-1.211-4.99-3.101s-2.083-4.603-2.083-7.51c0-2.955.775-5.57 2.083-7.509 1.26-1.938 3.052-3.101 4.99-3.101h200.314c1.938 0 3.73 1.211 4.99 3.101 1.259 1.938 2.034 4.604 2.034 7.509 0 2.955-.775 5.571-2.034 7.51-1.26 1.938-3.054 3.149-4.99 3.149zm0 72.133c-1.938 0-3.683-1.211-4.941-3.147-1.26-1.938-2.083-4.603-2.083-7.509 0-2.955.774-5.571 2.083-7.559 1.26-1.938 3.052-3.101 4.989-3.101h160.106c1.938 0 3.683 1.212 4.941 3.101 1.26 1.938 2.083 4.604 2.083 7.51 0 2.955-.775 5.57-2.083 7.508-1.26 1.939-3.052 3.102-4.941 3.102h-160.154z"/><path d="m412.294 462.618 39.188 84.037 31.84-29.174 42.813-5.64-38.122-81.758c-30.877-.263-56.037 9.785-74.167 32.534" fill="#ed6362"/><path d="m413.846 462.618-39.187 84.037-31.841-29.174-42.817-5.64 38.127-81.758c38.054-2.875 63.824 7.411 75.718 32.535z" fill="#e95454"/><path d="m413.069 257.436c56.708 0 102.68 45.973 102.68 102.681 0 56.705-45.972 102.677-102.68 102.677-56.71 0-102.679-45.972-102.679-102.677 0-56.708 45.969-102.681 102.679-102.681z" fill="#ffcc5b"/><g fill="#ec9922"><path d="m393.064 432.376c-.297 0-.598-.041-.896-.125-39.77-11.523-62.761-53.249-51.241-93.023.492-1.706 2.272-2.687 3.981-2.19 1.705.491 2.687 2.273 2.19 3.979-10.527 36.367 10.489 74.523 46.857 85.059 1.705.491 2.688 2.278 2.194 3.981-.408 1.406-1.694 2.319-3.085 2.319z"/><path d="m482.1 383.322c-.298 0-.6-.04-.895-.127-1.704-.495-2.686-2.276-2.196-3.98 5.108-17.619 3.041-36.167-5.809-52.234-8.853-16.065-23.426-27.723-41.043-32.827-1.704-.49-2.689-2.274-2.196-3.979.495-1.704 2.274-2.684 3.98-2.192 19.268 5.578 35.207 18.329 44.885 35.897 9.681 17.572 11.938 37.855 6.361 57.121-.407 1.414-1.691 2.321-3.087 2.321z"/><path d="m439.06 400.624c-.512 0-1.026-.122-1.493-.37l-24.511-12.882-24.506 12.884c-1.082.57-2.393.476-3.384-.243-.99-.719-1.487-1.936-1.28-3.141l4.682-27.292-19.824-19.327c-.875-.854-1.192-2.133-.813-3.293.38-1.159 1.384-2.012 2.595-2.188l27.401-3.98 12.249-24.828c.541-1.096 1.661-1.793 2.885-1.793s2.34.691 2.88 1.793l12.254 24.828 27.399 3.98c1.212.177 2.214 1.026 2.596 2.188.377 1.162.063 2.439-.812 3.293l-19.828 19.327 4.682 27.292c.204 1.205-.288 2.422-1.277 3.141-.56.404-1.229.611-1.895.611z"/></g></svg>