<svg enable-background="new 31.856 0 95 53" height="53" viewBox="31.856 0 95 53" width="95" xmlns="http://www.w3.org/2000/svg"><path d="m67.406 33.148c6.086-.539 12.179-1.053 18.271-1.545 7.426-.599 14.969-.334 22.295-1.891 5.289-1.123 13.014-5.593 6.814-11.238-1.479-1.348-3.412-2.089-5.359-2.55-7.248-1.707-15.229-.22-22.533.607-6.945.786-13.874 1.73-20.802 2.654-10.71 1.428-22.352 4.065-33.202 3.132" style="fill:none;stroke:#324a55;stroke-width:.7;stroke-linecap:round;stroke-linejoin:round;stroke-miterlimit:10"/><path d="m89.907 29.643c5.601-4.479 10.897-9.916 14.821-15.937 1.465-2.238 3.047-4.453 4.041-6.954.346-.88.981-2.55.705-3.487-.681-2.27-6.052 6.602-6.529 7.564-3.412 6.943-6.875 13.972-8.781 21.509-.956 3.788-1.506 7.693-1.369 11.604.077 2.146.205 7.763 3.244 8.053.454.045.902-.126 1.301-.355 2.741-1.603 4.02-5.65 5.205-8.388 2.648-6.094 4.686-12.464 6.609-18.814 1.412-4.652 2.74-9.334 3.953-14.042" style="fill:none;stroke:#324a55;stroke-width:.7;stroke-linecap:round;stroke-linejoin:round;stroke-miterlimit:10"/><text fill="#324a55" font-family="'Tomatoes'" font-size="17" transform="matrix(.9955 -.0949 .0949 .9955 39.2979 35.2402)">Kraus</text></svg>